<?xml version="1.0" encoding="UTF-8" standalone="no"?>
<svg
   xmlns:dc="http://purl.org/dc/elements/1.1/"
   xmlns:cc="http://creativecommons.org/ns#"
   xmlns:rdf="http://www.w3.org/1999/02/22-rdf-syntax-ns#"
   xmlns:svg="http://www.w3.org/2000/svg"
   xmlns="http://www.w3.org/2000/svg"
   viewBox="0 0 2400 1350"
   height="1350"
   width="2400"
   xml:space="preserve"
   version="1.1"
   id="svg2"><metadata
     id="metadata8"><rdf:RDF><cc:Work
         rdf:about=""><dc:format>image/svg+xml</dc:format><dc:type
           rdf:resource="http://purl.org/dc/dcmitype/StillImage" /></cc:Work></rdf:RDF></metadata><defs
     id="defs6"><clipPath
       id="clipPath22"
       clipPathUnits="userSpaceOnUse"><path
         id="path24"
         d="m 0,1080 1920,0 L 1920,0 0,0 0,1080 Z" /></clipPath><pattern
       id="pattern44"
       height="114.418"
       width="114.417"
       y="0"
       x="0"
       patternUnits="userSpaceOnUse"
       patternTransform="translate(-88.1138,302.0337)"><path
         id="path46"
         style="fill:#f60261;fill-opacity:1;fill-rule:nonzero;stroke:none"
         d="M 114.417,0 0,0 l 0,114.418 114.417,0 0,-114.418 z" /></pattern><pattern
       id="pattern52"
       height="114.418"
       width="114.417"
       y="0"
       x="0"
       patternUnits="userSpaceOnUse"
       patternTransform="translate(-88.1138,302.0337)"><path
         id="path54"
         style="fill:#f60261;fill-opacity:1;fill-rule:nonzero;stroke:none"
         d="M 114.417,0 0,0 l 0,114.418 114.417,0 0,-114.418 z" /></pattern><pattern
       id="pattern64"
       height="114.418"
       width="114.417"
       y="0"
       x="0"
       patternUnits="userSpaceOnUse"
       patternTransform="translate(-88.1138,302.0337)"><path
         id="path66"
         style="fill:#00ebea;fill-opacity:1;fill-rule:nonzero;stroke:none"
         d="M 114.417,0 0,0 l 0,114.418 114.417,0 0,-114.418 z" /></pattern><pattern
       id="pattern88"
       height="114.418"
       width="114.417"
       y="0"
       x="0"
       patternUnits="userSpaceOnUse"
       patternTransform="translate(-88.1138,302.0337)"><path
         id="path90"
         style="fill:#00ebea;fill-opacity:1;fill-rule:nonzero;stroke:none"
         d="M 114.417,0 0,0 l 0,114.418 114.417,0 0,-114.418 z" /></pattern><pattern
       id="pattern96"
       height="114.418"
       width="114.417"
       y="0"
       x="0"
       patternUnits="userSpaceOnUse"
       patternTransform="translate(-88.1138,302.0337)"><path
         id="path98"
         style="fill:#00ebea;fill-opacity:1;fill-rule:nonzero;stroke:none"
         d="M 114.417,0 0,0 l 0,114.418 114.417,0 0,-114.418 z" /></pattern><pattern
       id="pattern112"
       height="114.418"
       width="114.417"
       y="0"
       x="0"
       patternUnits="userSpaceOnUse"
       patternTransform="translate(-88.1138,302.0337)"><path
         id="path114"
         style="fill:#00ebea;fill-opacity:1;fill-rule:nonzero;stroke:none"
         d="M 114.417,0 0,0 l 0,114.418 114.417,0 0,-114.418 z" /></pattern><pattern
       id="pattern144"
       height="114.418"
       width="114.417"
       y="0"
       x="0"
       patternUnits="userSpaceOnUse"
       patternTransform="translate(-88.1138,302.0337)"><path
         id="path146"
         style="fill:#00ebea;fill-opacity:1;fill-rule:nonzero;stroke:none"
         d="M 114.417,0 0,0 l 0,114.418 114.417,0 0,-114.418 z" /></pattern><pattern
       id="pattern168"
       height="114.418"
       width="114.417"
       y="0"
       x="0"
       patternUnits="userSpaceOnUse"
       patternTransform="translate(-88.1138,302.0337)"><path
         id="path170"
         style="fill:#f60261;fill-opacity:1;fill-rule:nonzero;stroke:none"
         d="M 114.417,0 0,0 l 0,114.418 114.417,0 0,-114.418 z" /></pattern><pattern
       id="pattern180"
       height="114.418"
       width="114.417"
       y="0"
       x="0"
       patternUnits="userSpaceOnUse"
       patternTransform="translate(-88.1138,302.0337)"><path
         id="path182"
         style="fill:#f60261;fill-opacity:1;fill-rule:nonzero;stroke:none"
         d="M 114.417,0 0,0 l 0,114.418 114.417,0 0,-114.418 z" /></pattern><pattern
       id="pattern188"
       height="114.418"
       width="114.417"
       y="0"
       x="0"
       patternUnits="userSpaceOnUse"
       patternTransform="translate(-88.1138,302.0337)"><path
         id="path190"
         style="fill:#f60261;fill-opacity:1;fill-rule:nonzero;stroke:none"
         d="M 114.417,0 0,0 l 0,114.418 114.417,0 0,-114.418 z" /></pattern><pattern
       id="pattern200"
       height="114.418"
       width="114.417"
       y="0"
       x="0"
       patternUnits="userSpaceOnUse"
       patternTransform="translate(-88.1138,302.0337)"><path
         id="path202"
         style="fill:#f60261;fill-opacity:1;fill-rule:nonzero;stroke:none"
         d="M 114.417,0 0,0 l 0,114.418 114.417,0 0,-114.418 z" /></pattern><pattern
       id="pattern220"
       height="114.418"
       width="114.417"
       y="0"
       x="0"
       patternUnits="userSpaceOnUse"
       patternTransform="translate(-88.1138,302.0337)"><path
         id="path222"
         style="fill:#00ebea;fill-opacity:1;fill-rule:nonzero;stroke:none"
         d="M 114.417,0 0,0 l 0,114.418 114.417,0 0,-114.418 z" /></pattern><pattern
       id="pattern228"
       height="114.418"
       width="114.417"
       y="0"
       x="0"
       patternUnits="userSpaceOnUse"
       patternTransform="translate(-88.1138,302.0337)"><path
         id="path230"
         style="fill:#00ebea;fill-opacity:1;fill-rule:nonzero;stroke:none"
         d="M 114.417,0 0,0 l 0,114.418 114.417,0 0,-114.418 z" /></pattern><pattern
       id="pattern236"
       height="114.418"
       width="114.417"
       y="0"
       x="0"
       patternUnits="userSpaceOnUse"
       patternTransform="translate(-88.1138,302.0337)"><path
         id="path238"
         style="fill:#00ebea;fill-opacity:1;fill-rule:nonzero;stroke:none"
         d="M 114.417,0 0,0 l 0,114.418 114.417,0 0,-114.418 z" /></pattern><pattern
       id="pattern252"
       height="114.418"
       width="114.417"
       y="0"
       x="0"
       patternUnits="userSpaceOnUse"
       patternTransform="translate(-88.1138,302.0337)"><path
         id="path254"
         style="fill:#f60261;fill-opacity:1;fill-rule:nonzero;stroke:none"
         d="M 114.417,0 0,0 l 0,114.418 114.417,0 0,-114.418 z" /></pattern><pattern
       id="pattern264"
       height="114.418"
       width="114.417"
       y="0"
       x="0"
       patternUnits="userSpaceOnUse"
       patternTransform="translate(-88.1138,302.0337)"><path
         id="path266"
         style="fill:#f60261;fill-opacity:1;fill-rule:nonzero;stroke:none"
         d="M 114.417,0 0,0 l 0,114.418 114.417,0 0,-114.418 z" /></pattern><pattern
       id="pattern272"
       height="114.418"
       width="114.417"
       y="0"
       x="0"
       patternUnits="userSpaceOnUse"
       patternTransform="translate(-88.1138,302.0337)"><path
         id="path274"
         style="fill:#00ebea;fill-opacity:1;fill-rule:nonzero;stroke:none"
         d="M 114.417,0 0,0 l 0,114.418 114.417,0 0,-114.418 z" /></pattern><pattern
       id="pattern280"
       height="114.418"
       width="114.417"
       y="0"
       x="0"
       patternUnits="userSpaceOnUse"
       patternTransform="translate(-88.1138,302.0337)"><path
         id="path282"
         style="fill:#00ebea;fill-opacity:1;fill-rule:nonzero;stroke:none"
         d="M 114.417,0 0,0 l 0,114.418 114.417,0 0,-114.418 z" /></pattern><pattern
       id="pattern288"
       height="114.418"
       width="114.417"
       y="0"
       x="0"
       patternUnits="userSpaceOnUse"
       patternTransform="translate(-88.1138,302.0337)"><path
         id="path290"
         style="fill:#00ebea;fill-opacity:1;fill-rule:nonzero;stroke:none"
         d="M 114.417,0 0,0 l 0,114.418 114.417,0 0,-114.418 z" /></pattern><pattern
       id="pattern316"
       height="114.418"
       width="114.417"
       y="0"
       x="0"
       patternUnits="userSpaceOnUse"
       patternTransform="translate(-88.1138,302.0337)"><path
         id="path318"
         style="fill:#f60261;fill-opacity:1;fill-rule:nonzero;stroke:none"
         d="M 114.417,0 0,0 l 0,114.418 114.417,0 0,-114.418 z" /></pattern><pattern
       id="pattern324"
       height="114.418"
       width="114.417"
       y="0"
       x="0"
       patternUnits="userSpaceOnUse"
       patternTransform="translate(-88.1138,302.0337)"><path
         id="path326"
         style="fill:#00ebea;fill-opacity:1;fill-rule:nonzero;stroke:none"
         d="M 114.417,0 0,0 l 0,114.418 114.417,0 0,-114.418 z" /></pattern><pattern
       id="pattern332"
       height="114.418"
       width="114.417"
       y="0"
       x="0"
       patternUnits="userSpaceOnUse"
       patternTransform="translate(-88.1138,302.0337)"><path
         id="path334"
         style="fill:#f60261;fill-opacity:1;fill-rule:nonzero;stroke:none"
         d="M 114.417,0 0,0 l 0,114.418 114.417,0 0,-114.418 z" /></pattern><pattern
       id="pattern340"
       height="114.418"
       width="114.417"
       y="0"
       x="0"
       patternUnits="userSpaceOnUse"
       patternTransform="translate(-88.1138,302.0337)"><path
         id="path342"
         style="fill:#f60261;fill-opacity:1;fill-rule:nonzero;stroke:none"
         d="M 114.417,0 0,0 l 0,114.418 114.417,0 0,-114.418 z" /></pattern><pattern
       id="pattern348"
       height="114.418"
       width="114.417"
       y="0"
       x="0"
       patternUnits="userSpaceOnUse"
       patternTransform="translate(-88.1138,302.0337)"><path
         id="path350"
         style="fill:#fdcb01;fill-opacity:1;fill-rule:nonzero;stroke:none"
         d="M 114.417,0 0,0 l 0,114.418 114.417,0 0,-114.418 z" /></pattern><pattern
       id="pattern356"
       height="114.418"
       width="114.417"
       y="0"
       x="0"
       patternUnits="userSpaceOnUse"
       patternTransform="translate(-88.1138,302.0337)"><path
         id="path358"
         style="fill:#f60261;fill-opacity:1;fill-rule:nonzero;stroke:none"
         d="M 114.417,0 0,0 l 0,114.418 114.417,0 0,-114.418 z" /></pattern><pattern
       id="pattern364"
       height="114.418"
       width="114.417"
       y="0"
       x="0"
       patternUnits="userSpaceOnUse"
       patternTransform="translate(-88.1138,302.0337)"><path
         id="path366"
         style="fill:#f60261;fill-opacity:1;fill-rule:nonzero;stroke:none"
         d="M 114.417,0 0,0 l 0,114.418 114.417,0 0,-114.418 z" /></pattern><pattern
       id="pattern372"
       height="114.418"
       width="114.417"
       y="0"
       x="0"
       patternUnits="userSpaceOnUse"
       patternTransform="translate(-88.1138,302.0337)"><path
         id="path374"
         style="fill:#f60261;fill-opacity:1;fill-rule:nonzero;stroke:none"
         d="M 114.417,0 0,0 l 0,114.418 114.417,0 0,-114.418 z" /></pattern><pattern
       id="pattern392"
       height="114.418"
       width="114.417"
       y="0"
       x="0"
       patternUnits="userSpaceOnUse"
       patternTransform="translate(-88.1138,302.0337)"><path
         id="path394"
         style="fill:#f60261;fill-opacity:1;fill-rule:nonzero;stroke:none"
         d="M 114.417,0 0,0 l 0,114.418 114.417,0 0,-114.418 z" /></pattern><pattern
       id="pattern400"
       height="114.418"
       width="114.417"
       y="0"
       x="0"
       patternUnits="userSpaceOnUse"
       patternTransform="translate(-88.1138,302.0337)"><path
         id="path402"
         style="fill:#f60261;fill-opacity:1;fill-rule:nonzero;stroke:none"
         d="M 114.417,0 0,0 l 0,114.418 114.417,0 0,-114.418 z" /></pattern><pattern
       id="pattern408"
       height="114.418"
       width="114.417"
       y="0"
       x="0"
       patternUnits="userSpaceOnUse"
       patternTransform="translate(-88.1138,302.0337)"><path
         id="path410"
         style="fill:#f60261;fill-opacity:1;fill-rule:nonzero;stroke:none"
         d="M 114.417,0 0,0 l 0,114.418 114.417,0 0,-114.418 z" /></pattern><pattern
       id="pattern416"
       height="114.418"
       width="114.417"
       y="0"
       x="0"
       patternUnits="userSpaceOnUse"
       patternTransform="translate(-88.1138,302.0337)"><path
         id="path418"
         style="fill:#00ebea;fill-opacity:1;fill-rule:nonzero;stroke:none"
         d="M 114.417,0 0,0 l 0,114.418 114.417,0 0,-114.418 z" /></pattern><pattern
       id="pattern440"
       height="114.418"
       width="114.417"
       y="0"
       x="0"
       patternUnits="userSpaceOnUse"
       patternTransform="translate(-88.1138,302.0337)"><path
         id="path442"
         style="fill:#f60261;fill-opacity:1;fill-rule:nonzero;stroke:none"
         d="M 114.417,0 0,0 l 0,114.418 114.417,0 0,-114.418 z" /></pattern><pattern
       id="pattern448"
       height="114.418"
       width="114.417"
       y="0"
       x="0"
       patternUnits="userSpaceOnUse"
       patternTransform="translate(-88.1138,302.0337)"><path
         id="path450"
         style="fill:#f60261;fill-opacity:1;fill-rule:nonzero;stroke:none"
         d="M 114.417,0 0,0 l 0,114.418 114.417,0 0,-114.418 z" /></pattern><pattern
       id="pattern456"
       height="114.418"
       width="114.417"
       y="0"
       x="0"
       patternUnits="userSpaceOnUse"
       patternTransform="translate(-88.1138,302.0337)"><path
         id="path458"
         style="fill:#00ebea;fill-opacity:1;fill-rule:nonzero;stroke:none"
         d="M 114.417,0 0,0 l 0,114.418 114.417,0 0,-114.418 z" /></pattern><pattern
       id="pattern464"
       height="114.418"
       width="114.417"
       y="0"
       x="0"
       patternUnits="userSpaceOnUse"
       patternTransform="translate(-88.1138,302.0337)"><path
         id="path466"
         style="fill:#00ebea;fill-opacity:1;fill-rule:nonzero;stroke:none"
         d="M 114.417,0 0,0 l 0,114.418 114.417,0 0,-114.418 z" /></pattern><pattern
       id="pattern472"
       height="114.418"
       width="114.417"
       y="0"
       x="0"
       patternUnits="userSpaceOnUse"
       patternTransform="translate(-88.1138,302.0337)"><path
         id="path474"
         style="fill:#00ebea;fill-opacity:1;fill-rule:nonzero;stroke:none"
         d="M 114.417,0 0,0 l 0,114.418 114.417,0 0,-114.418 z" /></pattern><pattern
       id="pattern480"
       height="114.418"
       width="114.417"
       y="0"
       x="0"
       patternUnits="userSpaceOnUse"
       patternTransform="translate(-88.1138,302.0337)"><path
         id="path482"
         style="fill:#00ebea;fill-opacity:1;fill-rule:nonzero;stroke:none"
         d="M 114.417,0 0,0 l 0,114.418 114.417,0 0,-114.418 z" /></pattern><pattern
       id="pattern544"
       height="114.418"
       width="114.417"
       y="0"
       x="0"
       patternUnits="userSpaceOnUse"
       patternTransform="translate(-88.1138,302.0337)"><path
         id="path546"
         style="fill:#00ebea;fill-opacity:1;fill-rule:nonzero;stroke:none"
         d="M 114.417,0 0,0 l 0,114.418 114.417,0 0,-114.418 z" /></pattern></defs><g
     transform="matrix(1.25,0,0,-1.25,0,1350)"
     id="g10"><path
       id="path12"
       style="fill:#250448;fill-opacity:1;fill-rule:nonzero;stroke:none"
       d="m 0,0 1919.786,0 0,1080 L 0,1080 0,0 Z" /><g
       transform="translate(188.314,887.1831)"
       id="g14"><path
         id="path16"
         style="fill:#f5f5f5;fill-opacity:1;fill-rule:nonzero;stroke:none"
         d="M 0,0 -100.2,-102.217" /></g><g
       id="g18"><g
         clip-path="url(#clipPath22)"
         id="g20"><g
           transform="translate(88.1138,777.9663)"
           id="g26"><path
             id="path28"
             style="fill:#00ebea;fill-opacity:1;fill-rule:nonzero;stroke:none"
             d="M 0,0 C -1.768,0 -3.537,0.666 -4.9,2.001 -7.661,4.708 -7.705,9.139 -4.999,11.9 l 100.2,102.217 c 2.706,2.761 7.137,2.805 9.9,0.099 2.76,-2.707 2.804,-7.138 0.098,-9.9 L 5,2.1 C 3.628,0.701 1.815,0 0,0" /></g><g
           transform="translate(311.603,1012.9551)"
           id="g30"><path
             id="path32"
             style="fill:#f5f5f5;fill-opacity:1;fill-rule:nonzero;stroke:none"
             d="M 0,0 -72.548,-74.009" /></g><g
           transform="translate(239.0547,931.9463)"
           id="g34"><path
             id="path36"
             style="fill:#00ebea;fill-opacity:1;fill-rule:nonzero;stroke:none"
             d="M 0,0 C -1.768,0 -3.537,0.666 -4.9,2.001 -7.661,4.708 -7.705,9.139 -4.999,11.9 l 72.548,74.009 c 2.707,2.76 7.138,2.805 9.9,0.099 2.76,-2.707 2.804,-7.138 0.098,-9.9 L 5,2.1 C 3.628,0.702 1.815,0 0,0" /></g><g
           transform="translate(214.1284,431.2598)"
           id="g38"><path
             id="path40"
             style="fill:#fdcb01;fill-opacity:1;fill-rule:nonzero;stroke:none"
             d="m 0,0 c -2.021,0 -4.043,0.761 -5.6,2.287 -3.155,3.093 -3.205,8.158 -0.112,11.314 l 136.426,139.172 c 3.093,3.155 8.159,3.206 11.313,0.113 3.155,-3.093 3.205,-8.158 0.113,-11.313 L 5.713,2.399 C 4.147,0.802 2.074,0 0,0" /></g><g
           transform="translate(1799.6182,271.2402)"
           id="g42"><path
             id="path48"
             style="fill:url(#pattern44);fill-opacity:1;fill-rule:nonzero;stroke:none"
             d="m 0,0 c -2.021,0 -4.042,0.761 -5.6,2.287 -3.154,3.093 -3.205,8.158 -0.112,11.314 l 40.865,41.688 c 3.093,3.154 8.159,3.205 11.314,0.112 3.154,-3.092 3.205,-8.158 0.112,-11.313 L 5.714,2.399 C 4.147,0.802 2.074,0 0,0" /></g><g
           transform="translate(1214.1035,790.8975)"
           id="g50"><path
             id="path56"
             style="fill:url(#pattern52);fill-opacity:1;fill-rule:nonzero;stroke:none"
             d="M 0,0 C -2.021,0 -4.042,0.761 -5.6,2.287 -8.755,5.38 -8.805,10.445 -5.712,13.6 l 98.089,100.064 c 3.093,3.154 8.158,3.206 11.313,0.112 3.156,-3.092 3.206,-8.157 0.113,-11.313 L 5.714,2.4 C 4.147,0.802 2.074,0 0,0" /></g><g
           transform="translate(1170.7031,890.9604)"
           id="g58"><path
             id="path60"
             style="fill:#fdcb01;fill-opacity:1;fill-rule:nonzero;stroke:none"
             d="M 0,0 C -2.021,0 -4.042,0.761 -5.6,2.287 -8.755,5.38 -8.805,10.445 -5.712,13.6 l 128.387,130.97 c 3.093,3.155 8.158,3.206 11.313,0.113 3.156,-3.093 3.205,-8.158 0.113,-11.313 L 5.714,2.4 C 4.147,0.802 2.074,0 0,0" /></g><g
           transform="translate(1356.9609,766.7866)"
           id="g62"><path
             id="path68"
             style="fill:url(#pattern64);fill-opacity:1;fill-rule:nonzero;stroke:none"
             d="M 0,0 C -2.021,0 -4.042,0.761 -5.6,2.287 -8.755,5.38 -8.805,10.445 -5.712,13.6 l 119.927,122.342 c 3.093,3.154 8.157,3.205 11.313,0.113 3.155,-3.093 3.205,-8.158 0.113,-11.313 L 5.714,2.4 C 4.147,0.802 2.074,0 0,0" /></g><g
           transform="translate(1611.5313,793.4893)"
           id="g70"><path
             id="path72"
             style="fill:#fdcb01;fill-opacity:1;fill-rule:nonzero;stroke:none"
             d="M 0,0 C -2.021,0 -4.042,0.761 -5.6,2.287 -8.755,5.38 -8.805,10.445 -5.712,13.6 l 223.489,227.989 c 3.093,3.155 8.158,3.206 11.314,0.113 3.154,-3.093 3.205,-8.158 0.112,-11.313 L 5.714,2.4 C 4.147,0.802 2.074,0 0,0" /></g><g
           transform="translate(26.4692,563.4946)"
           id="g74"><path
             id="path76"
             style="fill:#fdcb01;fill-opacity:1;fill-rule:nonzero;stroke:none"
             d="M 0,0 C -2.021,0 -4.042,0.761 -5.6,2.287 -8.755,5.38 -8.805,10.445 -5.712,13.6 l 95.066,96.98 c 3.093,3.156 8.158,3.205 11.313,0.113 3.155,-3.093 3.206,-8.158 0.113,-11.313 L 5.713,2.4 C 4.147,0.802 2.074,0 0,0" /></g><g
           transform="translate(178.2983,718.3809)"
           id="g78"><path
             id="path80"
             style="fill:#fdcb01;fill-opacity:1;fill-rule:nonzero;stroke:none"
             d="M 0,0 C -2.021,0 -4.042,0.761 -5.6,2.287 -8.755,5.38 -8.805,10.445 -5.712,13.6 l 71.66,73.103 c 3.093,3.154 8.157,3.206 11.313,0.113 3.155,-3.093 3.205,-8.158 0.113,-11.313 L 5.713,2.4 C 4.147,0.802 2.074,0 0,0" /></g><g
           transform="translate(989.5215,217.1719)"
           id="g82"><path
             id="path84"
             style="fill:#fdcb01;fill-opacity:1;fill-rule:nonzero;stroke:none"
             d="M 0,0 C -2.021,0 -4.042,0.761 -5.6,2.287 -8.754,5.38 -8.805,10.445 -5.712,13.601 L 89,110.219 c 3.093,3.153 8.158,3.205 11.313,0.112 3.156,-3.093 3.206,-8.158 0.113,-11.313 L 5.714,2.399 C 4.147,0.802 2.074,0 0,0" /></g><g
           transform="translate(1127.291,357.7139)"
           id="g86"><path
             id="path92"
             style="fill:url(#pattern88);fill-opacity:1;fill-rule:nonzero;stroke:none"
             d="m 0,0 c -2.021,0 -4.043,0.761 -5.601,2.287 -3.154,3.093 -3.205,8.158 -0.112,11.314 l 85.721,87.446 c 3.094,3.155 8.159,3.203 11.313,0.112 3.155,-3.093 3.205,-8.158 0.113,-11.313 L 5.713,2.399 C 4.146,0.802 2.073,0 0,0" /></g><g
           transform="translate(1565.998,138.1699)"
           id="g94"><path
             id="path100"
             style="fill:url(#pattern96);fill-opacity:1;fill-rule:nonzero;stroke:none"
             d="m 0,0 c -2.021,0 -4.042,0.761 -5.6,2.287 -3.155,3.093 -3.205,8.158 -0.112,11.314 l 223.489,227.988 c 3.093,3.154 8.159,3.205 11.314,0.112 3.154,-3.093 3.205,-8.158 0.112,-11.313 L 5.714,2.399 C 4.147,0.802 2.074,0 0,0" /></g><g
           transform="translate(1214.1143,56.5605)"
           id="g102"><path
             id="path104"
             style="fill:#fdcb01;fill-opacity:1;fill-rule:nonzero;stroke:none"
             d="M 0,0 C -2.021,0 -4.042,0.761 -5.6,2.287 -8.754,5.38 -8.805,10.445 -5.712,13.601 L 104.929,126.47 c 3.092,3.153 8.157,3.205 11.313,0.112 3.154,-3.093 3.205,-8.158 0.112,-11.313 L 5.714,2.399 C 4.147,0.802 2.074,0 0,0" /></g><g
           transform="translate(1534.8057,406.5059)"
           id="g106"><path
             id="path108"
             style="fill:#fdcb01;fill-opacity:1;fill-rule:nonzero;stroke:none"
             d="m 0,0 c -2.021,0 -4.042,0.761 -5.6,2.287 -3.154,3.093 -3.205,8.158 -0.112,11.314 l 223.489,227.987 c 3.093,3.155 8.159,3.206 11.314,0.113 3.155,-3.093 3.205,-8.158 0.112,-11.313 L 5.714,2.399 C 4.147,0.802 2.074,0 0,0" /></g><g
           transform="translate(529.2383,604.3867)"
           id="g110"><path
             id="path116"
             style="fill:url(#pattern112);fill-opacity:1;fill-rule:nonzero;stroke:none"
             d="M 0,0 C -2.021,0 -4.043,0.761 -5.6,2.287 -8.755,5.38 -8.805,10.445 -5.712,13.6 l 223.489,227.988 c 3.093,3.155 8.159,3.206 11.313,0.113 3.155,-3.093 3.205,-8.158 0.113,-11.313 L 5.713,2.4 C 4.147,0.802 2.074,0 0,0" /></g><g
           transform="translate(486.5669,64.0986)"
           id="g118"><path
             id="path120"
             style="fill:#fdcb01;fill-opacity:1;fill-rule:nonzero;stroke:none"
             d="m 0,0 c -2.021,0 -4.043,0.761 -5.6,2.287 -3.155,3.093 -3.205,8.158 -0.112,11.314 l 223.489,227.988 c 3.093,3.153 8.159,3.205 11.313,0.112 3.155,-3.093 3.205,-8.158 0.113,-11.313 L 5.713,2.399 C 4.147,0.802 2.074,0 0,0" /></g><g
           transform="translate(421.8452,570.4326)"
           id="g122"><path
             id="path124"
             style="fill:#fdcb01;fill-opacity:1;fill-rule:nonzero;stroke:none"
             d="M 0,0 C -2.021,0 -4.042,0.761 -5.6,2.287 -8.755,5.38 -8.805,10.445 -5.712,13.6 l 90.7,92.526 c 3.093,3.156 8.158,3.206 11.313,0.113 3.155,-3.093 3.205,-8.158 0.113,-11.313 L 5.713,2.4 C 4.147,0.802 2.074,0 0,0" /></g><g
           transform="translate(694.0415,700.4927)"
           id="g126"><path
             id="path128"
             style="fill:#fdcb01;fill-opacity:1;fill-rule:nonzero;stroke:none"
             d="M 0,0 C -2.021,0 -4.042,0.761 -5.6,2.287 -8.755,5.38 -8.805,10.445 -5.712,13.6 l 86.272,88.009 c 3.093,3.155 8.158,3.205 11.313,0.113 3.155,-3.093 3.206,-8.158 0.113,-11.313 L 5.713,2.4 C 4.147,0.802 2.074,0 0,0" /></g><g
           transform="translate(1773.7139,776.9663)"
           id="g130"><path
             id="path132"
             style="fill:#fdcb01;fill-opacity:1;fill-rule:nonzero;stroke:none"
             d="M 0,0 C -2.021,0 -4.042,0.761 -5.6,2.287 -8.755,5.38 -8.805,10.445 -5.712,13.6 l 127.889,130.463 c 3.093,3.154 8.157,3.205 11.313,0.112 3.156,-3.092 3.205,-8.157 0.113,-11.313 L 5.714,2.4 C 4.147,0.802 2.074,0 0,0" /></g><g
           transform="translate(1820.0508,138.1699)"
           id="g134"><path
             id="path136"
             style="fill:#fdcb01;fill-opacity:1;fill-rule:nonzero;stroke:none"
             d="m 0,0 c -2.021,0 -4.042,0.761 -5.6,2.287 -3.155,3.093 -3.205,8.158 -0.112,11.314 l 72.665,74.128 c 3.093,3.153 8.157,3.205 11.314,0.112 3.155,-3.093 3.205,-8.158 0.112,-11.314 L 5.714,2.399 C 4.147,0.802 2.074,0 0,0" /></g><g
           transform="translate(1404.7871,504.208)"
           id="g138"><path
             id="path140"
             style="fill:#fdcb01;fill-opacity:1;fill-rule:nonzero;stroke:none"
             d="m 0,0 c -2.021,0 -4.042,0.761 -5.6,2.287 -3.155,3.093 -3.205,8.158 -0.112,11.314 l 119.148,121.544 c 3.092,3.154 8.157,3.206 11.313,0.113 3.155,-3.093 3.205,-8.158 0.112,-11.313 L 5.714,2.399 C 4.147,0.802 2.074,0 0,0" /></g><g
           transform="translate(766.0317,194.9551)"
           id="g142"><path
             id="path148"
             style="fill:url(#pattern144);fill-opacity:1;fill-rule:nonzero;stroke:none"
             d="m 0,0 c -2.021,0 -4.042,0.761 -5.6,2.287 -3.155,3.093 -3.205,8.158 -0.112,11.314 l 38.624,39.401 c 3.093,3.155 8.158,3.205 11.313,0.112 3.155,-3.093 3.205,-8.158 0.112,-11.313 L 5.713,2.399 C 4.147,0.802 2.074,0 0,0" /></g><g
           transform="translate(848.2129,278.791)"
           id="g150"><path
             id="path152"
             style="fill:#fdcb01;fill-opacity:1;fill-rule:nonzero;stroke:none"
             d="m 0,0 c -2.021,0 -4.042,0.761 -5.6,2.287 -3.155,3.093 -3.205,8.158 -0.112,11.314 l 141.309,144.152 c 3.094,3.155 8.158,3.204 11.313,0.112 3.155,-3.093 3.205,-8.158 0.112,-11.313 L 5.713,2.399 C 4.147,0.802 2.074,0 0,0" /></g><g
           transform="translate(294.3716,761.4336)"
           id="g154"><path
             id="path156"
             style="fill:#fdcb01;fill-opacity:1;fill-rule:nonzero;stroke:none"
             d="M 0,0 C -2.021,0 -4.042,0.761 -5.6,2.287 -8.755,5.38 -8.805,10.445 -5.712,13.6 l 223.49,227.988 c 3.093,3.156 8.158,3.205 11.313,0.113 3.155,-3.093 3.205,-8.158 0.113,-11.313 L 5.713,2.4 C 4.147,0.802 2.074,0 0,0" /></g><g
           transform="translate(232.8501,8.1563)"
           id="g158"><path
             id="path160"
             style="fill:#fdcb01;fill-opacity:1;fill-rule:nonzero;stroke:none"
             d="m 0,0 c -2.021,0 -4.042,0.761 -5.6,2.287 -3.155,3.093 -3.205,8.158 -0.112,11.314 l 127.448,130.013 c 3.093,3.155 8.158,3.205 11.313,0.113 3.155,-3.093 3.205,-8.159 0.113,-11.314 L 5.713,2.399 C 4.147,0.802 2.074,0 0,0" /></g><g
           transform="translate(18.7822,897.2422)"
           id="g162"><path
             id="path164"
             style="fill:#f60261;fill-opacity:1;fill-rule:nonzero;stroke:none"
             d="M 0,0 C -1.768,0 -3.537,0.666 -4.9,2.001 -7.661,4.708 -7.705,9.14 -4.999,11.9 l 142.724,145.596 c 2.706,2.76 7.137,2.805 9.899,0.099 2.761,-2.707 2.805,-7.139 0.099,-9.9 L 5,2.1 C 3.628,0.702 1.815,0 0,0" /></g><g
           transform="translate(793.5933,380.1162)"
           id="g166"><path
             id="path172"
             style="fill:url(#pattern168);fill-opacity:1;fill-rule:nonzero;stroke:none"
             d="m 0,0 c -2.021,0 -4.042,0.761 -5.6,2.287 -3.155,3.093 -3.205,8.158 -0.112,11.314 l 223.49,227.987 c 3.093,3.155 8.157,3.206 11.313,0.113 3.156,-3.093 3.205,-8.158 0.113,-11.313 L 5.713,2.399 C 4.147,0.802 2.074,0 0,0" /></g><g
           transform="translate(1151.126,463.291)"
           id="g174"><path
             id="path176"
             style="fill:#fdcb01;fill-opacity:1;fill-rule:nonzero;stroke:none"
             d="m 0,0 c -2.021,0 -4.042,0.761 -5.6,2.287 -3.155,3.093 -3.205,8.158 -0.112,11.314 l 223.49,227.987 c 3.093,3.155 8.158,3.206 11.314,0.113 3.155,-3.093 3.205,-8.158 0.112,-11.313 L 5.714,2.399 C 4.147,0.802 2.074,0 0,0" /></g><g
           transform="translate(1374.6152,64.0986)"
           id="g178"><path
             id="path184"
             style="fill:url(#pattern180);fill-opacity:1;fill-rule:nonzero;stroke:none"
             d="m 0,0 c -2.021,0 -4.042,0.761 -5.6,2.287 -3.155,3.093 -3.205,8.158 -0.112,11.314 l 223.49,227.988 c 3.093,3.153 8.158,3.205 11.314,0.112 3.155,-3.093 3.205,-8.158 0.112,-11.313 L 5.714,2.399 C 4.147,0.802 2.074,0 0,0" /></g><g
           transform="translate(1789.4863,511.7578)"
           id="g186"><path
             id="path192"
             style="fill:url(#pattern188);fill-opacity:1;fill-rule:nonzero;stroke:none"
             d="M 0,0 C -2.021,0 -4.042,0.761 -5.6,2.287 -8.754,5.38 -8.805,10.445 -5.712,13.601 L 96.65,118.022 c 3.093,3.155 8.158,3.207 11.314,0.113 3.155,-3.093 3.205,-8.157 0.112,-11.313 L 5.714,2.399 C 4.147,0.802 2.074,0 0,0" /></g><g
           transform="translate(62.6309,178.0918)"
           id="g194"><path
             id="path196"
             style="fill:#fdcb01;fill-opacity:1;fill-rule:nonzero;stroke:none"
             d="m 0,0 c -2.021,0 -4.042,0.761 -5.6,2.287 -3.155,3.093 -3.205,8.158 -0.112,11.314 l 223.49,227.988 c 3.093,3.154 8.158,3.205 11.313,0.112 3.155,-3.093 3.205,-8.158 0.113,-11.313 L 5.713,2.399 C 4.147,0.802 2.074,0 0,0" /></g><g
           transform="translate(987.9883,28.6826)"
           id="g198"><path
             id="path204"
             style="fill:url(#pattern200);fill-opacity:1;fill-rule:nonzero;stroke:none"
             d="m 0,0 c -2.021,0 -4.042,0.761 -5.6,2.287 -3.154,3.093 -3.205,8.158 -0.112,11.314 l 131.867,134.52 c 3.093,3.153 8.158,3.205 11.314,0.112 3.154,-3.092 3.205,-8.158 0.112,-11.313 L 5.714,2.399 C 4.147,0.802 2.074,0 0,0" /></g><g
           transform="translate(23.085,655.6382)"
           id="g206"><path
             id="path208"
             style="fill:#fdcb01;fill-opacity:1;fill-rule:nonzero;stroke:none"
             d="M 0,0 C -2.021,0 -4.042,0.761 -5.6,2.287 -8.755,5.38 -8.805,10.445 -5.712,13.6 l 223.49,227.988 c 3.093,3.156 8.158,3.206 11.313,0.113 3.155,-3.093 3.205,-8.158 0.113,-11.313 L 5.713,2.4 C 4.147,0.802 2.074,0 0,0" /></g><g
           transform="translate(1352.6162,816.9521)"
           id="g210"><path
             id="path212"
             style="fill:#fdcb01;fill-opacity:1;fill-rule:nonzero;stroke:none"
             d="M 0,0 C -2.021,0 -4.042,0.761 -5.6,2.287 -8.755,5.38 -8.805,10.445 -5.712,13.6 l 223.49,227.988 c 3.093,3.155 8.158,3.206 11.314,0.113 3.155,-3.093 3.205,-8.158 0.112,-11.313 L 5.714,2.4 C 4.147,0.802 2.074,0 0,0" /></g><g
           transform="translate(1454.2529,994.7739)"
           id="g214"><path
             id="path216"
             style="fill:#fdcb01;fill-opacity:1;fill-rule:nonzero;stroke:none"
             d="M 0,0 C -2.021,0 -4.042,0.761 -5.6,2.287 -8.755,5.38 -8.805,10.445 -5.712,13.6 l 51.965,53.01 c 3.093,3.155 8.157,3.206 11.313,0.113 3.156,-3.093 3.205,-8.158 0.113,-11.313 L 5.714,2.4 C 4.147,0.802 2.074,0 0,0" /></g><g
           transform="translate(557.8516,894.6377)"
           id="g218"><path
             id="path224"
             style="fill:url(#pattern220);fill-opacity:1;fill-rule:nonzero;stroke:none"
             d="M 0,0 C -2.021,0 -4.042,0.761 -5.6,2.287 -8.755,5.38 -8.805,10.445 -5.712,13.6 l 87.993,89.764 c 3.093,3.156 8.158,3.206 11.313,0.113 3.155,-3.093 3.205,-8.158 0.113,-11.313 L 5.713,2.4 C 4.147,0.802 2.074,0 0,0" /></g><g
           transform="translate(1368.501,136.9932)"
           id="g226"><path
             id="path232"
             style="fill:url(#pattern228);fill-opacity:1;fill-rule:nonzero;stroke:none"
             d="m 0,0 c -2.021,0 -4.042,0.761 -5.6,2.287 -3.155,3.093 -3.205,8.158 -0.112,11.314 l 51.384,52.418 c 3.092,3.154 8.157,3.205 11.313,0.112 3.156,-3.093 3.205,-8.158 0.113,-11.314 L 5.714,2.399 C 4.147,0.802 2.074,0 0,0" /></g><g
           transform="translate(557.8516,782.2764)"
           id="g234"><path
             id="path240"
             style="fill:url(#pattern236);fill-opacity:1;fill-rule:nonzero;stroke:none"
             d="M 0,0 C -2.021,0 -4.042,0.761 -5.6,2.287 -8.755,5.38 -8.805,10.445 -5.712,13.6 l 111.717,113.966 c 3.093,3.156 8.158,3.205 11.313,0.113 3.155,-3.093 3.205,-8.158 0.113,-11.313 L 5.713,2.4 C 4.147,0.802 2.074,0 0,0" /></g><g
           transform="translate(529.2378,456.4385)"
           id="g242"><path
             id="path244"
             style="fill:#fdcb01;fill-opacity:1;fill-rule:nonzero;stroke:none"
             d="m 0,0 c -2.021,0 -4.042,0.761 -5.6,2.287 -3.155,3.093 -3.205,8.158 -0.112,11.314 l 223.49,227.987 c 3.093,3.156 8.158,3.206 11.313,0.113 3.155,-3.093 3.205,-8.158 0.113,-11.313 L 5.713,2.399 C 4.147,0.802 2.074,0 0,0" /></g><g
           transform="translate(738.5659,36.0781)"
           id="g246"><path
             id="path248"
             style="fill:#fdcb01;fill-opacity:1;fill-rule:nonzero;stroke:none"
             d="m 0,0 c -2.021,0 -4.042,0.761 -5.6,2.287 -3.155,3.093 -3.205,8.158 -0.112,11.314 l 139.211,142.013 c 3.093,3.156 8.158,3.205 11.313,0.113 3.155,-3.093 3.206,-8.159 0.113,-11.314 L 5.713,2.399 C 4.147,0.802 2.074,0 0,0" /></g><g
           transform="translate(1630.1533,18.5352)"
           id="g250"><path
             id="path256"
             style="fill:url(#pattern252);fill-opacity:1;fill-rule:nonzero;stroke:none"
             d="M 0,0 C -2.021,0 -4.042,0.761 -5.6,2.287 -8.754,5.38 -8.805,10.445 -5.712,13.601 L 111.56,133.234 c 3.092,3.154 8.158,3.205 11.313,0.113 3.154,-3.093 3.205,-8.159 0.112,-11.314 L 5.714,2.399 C 4.147,0.802 2.074,0 0,0" /></g><g
           transform="translate(30.2036,422.3975)"
           id="g258"><path
             id="path260"
             style="fill:#fdcb01;fill-opacity:1;fill-rule:nonzero;stroke:none"
             d="m 0,0 c -2.021,0 -4.042,0.761 -5.6,2.287 -3.155,3.093 -3.205,8.158 -0.112,11.314 l 87.597,89.36 c 3.094,3.154 8.158,3.204 11.313,0.112 3.156,-3.093 3.206,-8.158 0.113,-11.313 L 5.713,2.399 C 4.147,0.802 2.074,0 0,0" /></g><g
           transform="translate(294.3711,308.9492)"
           id="g262"><path
             id="path268"
             style="fill:url(#pattern264);fill-opacity:1;fill-rule:nonzero;stroke:none"
             d="m 0,0 c -2.021,0 -4.042,0.761 -5.6,2.287 -3.155,3.093 -3.205,8.158 -0.112,11.314 l 223.49,227.986 c 3.093,3.156 8.158,3.205 11.313,0.113 3.155,-3.093 3.205,-8.158 0.113,-11.313 L 5.713,2.399 C 4.147,0.802 2.074,0 0,0" /></g><g
           transform="translate(989.5205,808.2266)"
           id="g270"><path
             id="path276"
             style="fill:url(#pattern272);fill-opacity:1;fill-rule:nonzero;stroke:none"
             d="M 0,0 C -2.021,0 -4.042,0.761 -5.6,2.287 -8.755,5.38 -8.805,10.445 -5.712,13.6 l 223.49,227.988 c 3.093,3.154 8.158,3.206 11.314,0.113 3.155,-3.093 3.205,-8.158 0.112,-11.313 L 5.714,2.4 C 4.147,0.802 2.074,0 0,0" /></g><g
           transform="translate(1188.7002,138.1699)"
           id="g278"><path
             id="path284"
             style="fill:url(#pattern280);fill-opacity:1;fill-rule:nonzero;stroke:none"
             d="m 0,0 c -2.021,0 -4.042,0.761 -5.6,2.287 -3.155,3.093 -3.205,8.158 -0.112,11.314 l 223.49,227.988 c 3.093,3.154 8.158,3.205 11.314,0.112 3.155,-3.093 3.205,-8.158 0.112,-11.313 L 5.714,2.399 C 4.147,0.802 2.074,0 0,0" /></g><g
           transform="translate(1431.9434,691.2773)"
           id="g286"><path
             id="path292"
             style="fill:url(#pattern288);fill-opacity:1;fill-rule:nonzero;stroke:none"
             d="M 0,0 C -2.021,0 -4.042,0.761 -5.6,2.287 -8.755,5.38 -8.805,10.445 -5.712,13.6 l 223.49,227.988 c 3.093,3.155 8.158,3.206 11.314,0.113 3.155,-3.093 3.205,-8.158 0.112,-11.313 L 5.714,2.4 C 4.147,0.802 2.074,0 0,0" /></g><g
           transform="translate(397.1636,947.5195)"
           id="g294"><path
             id="path296"
             style="fill:#f5f5f5;fill-opacity:1;fill-rule:nonzero;stroke:none"
             d="M 0,0 -62.829,-64.093" /></g><g
           transform="translate(334.3345,876.4263)"
           id="g298"><path
             id="path300"
             style="fill:#00ebea;fill-opacity:1;fill-rule:nonzero;stroke:none"
             d="M 0,0 C -1.768,0 -3.537,0.666 -4.9,2.001 -7.661,4.708 -7.705,9.14 -4.999,11.9 L 57.83,75.994 c 2.706,2.761 7.137,2.805 9.899,0.098 2.761,-2.706 2.805,-7.138 0.099,-9.899 L 5,2.1 C 3.628,0.702 1.815,0 0,0" /></g><g
           transform="translate(250.4824,581.5176)"
           id="g302"><path
             id="path304"
             style="fill:#f60261;fill-opacity:1;fill-rule:nonzero;stroke:none"
             d="m 0,0 c -1.779,0 -3.558,0.674 -4.923,2.023 -2.748,2.719 -2.772,7.151 -0.054,9.9 l 262.064,264.936 c 2.719,2.749 7.151,2.772 9.899,0.054 2.749,-2.719 2.773,-7.151 0.054,-9.899 L 4.977,2.077 C 3.607,0.693 1.804,0 0,0" /></g><g
           transform="translate(346.1689,752.4971)"
           id="g306"><path
             id="path308"
             style="fill:#f5f5f5;fill-opacity:1;fill-rule:nonzero;stroke:none"
             d="M 0,0 -184.663,-186.124" /></g><g
           transform="translate(161.5059,559.373)"
           id="g310"><path
             id="path312"
             style="fill:#00ebea;fill-opacity:1;fill-rule:nonzero;stroke:none"
             d="m 0,0 c -1.782,0 -3.565,0.676 -4.93,2.031 -2.745,2.723 -2.762,7.155 -0.039,9.899 l 184.663,186.124 c 2.724,2.745 7.156,2.761 9.899,0.039 2.745,-2.723 2.762,-7.155 0.039,-9.899 L 4.969,2.07 C 3.601,0.69 1.8,0 0,0" /></g><g
           transform="translate(365.749,989.4209)"
           id="g314"><path
             id="path320"
             style="fill:url(#pattern316);fill-opacity:1;fill-rule:nonzero;stroke:none"
             d="M 0,0 C -2.021,0 -4.042,0.761 -5.6,2.287 -8.755,5.38 -8.805,10.445 -5.712,13.6 l 40.865,41.689 c 3.093,3.154 8.159,3.205 11.313,0.112 3.156,-3.092 3.206,-8.157 0.113,-11.313 L 5.713,2.4 C 4.147,0.802 2.074,0 0,0" /></g><g
           transform="translate(516.9858,257.9463)"
           id="g322"><path
             id="path328"
             style="fill:url(#pattern324);fill-opacity:1;fill-rule:nonzero;stroke:none"
             d="m 0,0 c -2.021,0 -4.042,0.761 -5.6,2.287 -3.155,3.093 -3.205,8.158 -0.112,11.314 l 40.865,41.688 c 3.093,3.155 8.159,3.205 11.313,0.112 3.156,-3.092 3.206,-8.158 0.113,-11.313 L 5.713,2.399 C 4.147,0.802 2.074,0 0,0" /></g><g
           transform="translate(117.7808,910.1021)"
           id="g330"><path
             id="path336"
             style="fill:url(#pattern332);fill-opacity:1;fill-rule:nonzero;stroke:none"
             d="M 0,0 C -2.021,0 -4.043,0.761 -5.6,2.287 -8.755,5.38 -8.805,10.445 -5.712,13.6 l 40.865,41.689 c 3.093,3.154 8.158,3.206 11.313,0.112 3.156,-3.092 3.206,-8.157 0.113,-11.313 L 5.713,2.4 C 4.147,0.802 2.074,0 0,0" /></g><g
           transform="translate(218.6216,1000.6338)"
           id="g338"><path
             id="path344"
             style="fill:url(#pattern340);fill-opacity:1;fill-rule:nonzero;stroke:none"
             d="M 0,0 C -2.021,0 -4.043,0.761 -5.6,2.287 -8.755,5.38 -8.805,10.445 -5.712,13.6 l 40.865,41.689 c 3.093,3.154 8.158,3.205 11.313,0.112 3.156,-3.092 3.206,-8.157 0.113,-11.313 L 5.713,2.4 C 4.147,0.802 2.074,0 0,0" /></g><g
           transform="translate(732.2944,886.6284)"
           id="g346"><path
             id="path352"
             style="fill:url(#pattern348);fill-opacity:1;fill-rule:nonzero;stroke:none"
             d="M 0,0 C -2.021,0 -4.043,0.761 -5.6,2.287 -8.755,5.38 -8.805,10.445 -5.712,13.6 l 40.865,41.689 c 3.093,3.154 8.159,3.205 11.313,0.112 3.156,-3.092 3.206,-8.157 0.113,-11.313 L 5.713,2.4 C 4.147,0.802 2.074,0 0,0" /></g><g
           transform="translate(905.3384,630.5908)"
           id="g354"><path
             id="path360"
             style="fill:url(#pattern356);fill-opacity:1;fill-rule:nonzero;stroke:none"
             d="M 0,0 C -2.021,0 -4.043,0.761 -5.6,2.287 -8.755,5.38 -8.805,10.445 -5.712,13.6 l 40.865,41.689 c 3.093,3.154 8.159,3.205 11.313,0.112 3.156,-3.092 3.206,-8.157 0.113,-11.313 L 5.713,2.4 C 4.147,0.802 2.074,0 0,0" /></g><g
           transform="translate(905.3384,854.582)"
           id="g362"><path
             id="path368"
             style="fill:url(#pattern364);fill-opacity:1;fill-rule:nonzero;stroke:none"
             d="M 0,0 C -2.021,0 -4.043,0.761 -5.6,2.287 -8.755,5.38 -8.805,10.445 -5.712,13.6 l 40.865,41.689 c 3.093,3.154 8.159,3.205 11.313,0.112 3.156,-3.092 3.206,-8.157 0.113,-11.313 L 5.713,2.4 C 4.147,0.802 2.074,0 0,0" /></g><g
           transform="translate(905.3384,984.1108)"
           id="g370"><path
             id="path376"
             style="fill:url(#pattern372);fill-opacity:1;fill-rule:nonzero;stroke:none"
             d="M 0,0 C -2.021,0 -4.043,0.761 -5.6,2.287 -8.755,5.38 -8.805,10.445 -5.712,13.6 l 40.865,41.689 c 3.093,3.154 8.159,3.205 11.313,0.112 3.156,-3.092 3.206,-8.157 0.113,-11.313 L 5.713,2.4 C 4.147,0.802 2.074,0 0,0" /></g><g
           transform="translate(869.2993,754.9326)"
           id="g378"><path
             id="path380"
             style="fill:#fdcb01;fill-opacity:1;fill-rule:nonzero;stroke:none"
             d="M 0,0 C -2.021,0 -4.042,0.761 -5.6,2.287 -8.755,5.38 -8.805,10.445 -5.712,13.6 l 90.7,92.526 c 3.093,3.156 8.157,3.206 11.313,0.113 3.156,-3.093 3.205,-8.157 0.113,-11.313 L 5.713,2.4 C 4.147,0.802 2.074,0 0,0" /></g><g
           transform="translate(673.2993,410.9326)"
           id="g382"><path
             id="path384"
             style="fill:#fdcb01;fill-opacity:1;fill-rule:nonzero;stroke:none"
             d="m 0,0 c -2.021,0 -4.042,0.761 -5.6,2.287 -3.155,3.093 -3.205,8.158 -0.112,11.314 l 90.7,92.526 c 3.093,3.153 8.158,3.205 11.313,0.112 3.155,-3.093 3.205,-8.158 0.113,-11.313 L 5.713,2.399 C 4.147,0.802 2.074,0 0,0" /></g><g
           transform="translate(266.2524,148.6914)"
           id="g386"><path
             id="path388"
             style="fill:#fdcb01;fill-opacity:1;fill-rule:nonzero;stroke:none"
             d="m 0,0 c -2.021,0 -4.042,0.761 -5.6,2.287 -3.155,3.093 -3.205,8.158 -0.112,11.314 l 90.7,92.526 c 3.092,3.153 8.158,3.205 11.313,0.112 3.155,-3.093 3.205,-8.158 0.113,-11.313 L 5.713,2.399 C 4.147,0.802 2.074,0 0,0" /></g><g
           transform="translate(600.4946,36.4961)"
           id="g390"><path
             id="path396"
             style="fill:url(#pattern392);fill-opacity:1;fill-rule:nonzero;stroke:none"
             d="m 0,0 c -2.021,0 -4.042,0.761 -5.6,2.287 -3.155,3.093 -3.205,8.158 -0.112,11.314 l 90.7,92.526 c 3.093,3.153 8.158,3.205 11.313,0.112 3.155,-3.093 3.205,-8.158 0.113,-11.313 L 5.713,2.399 C 4.147,0.802 2.074,0 0,0" /></g><g
           transform="translate(1545.5654,889.2578)"
           id="g398"><path
             id="path404"
             style="fill:url(#pattern400);fill-opacity:1;fill-rule:nonzero;stroke:none"
             d="M 0,0 C -2.021,0 -4.042,0.761 -5.6,2.287 -8.755,5.38 -8.805,10.445 -5.712,13.6 l 40.866,41.689 c 3.093,3.154 8.158,3.205 11.314,0.112 3.155,-3.092 3.205,-8.158 0.112,-11.313 L 5.714,2.4 C 4.147,0.802 2.074,0 0,0" /></g><g
           transform="translate(1503.502,490.9121)"
           id="g406"><path
             id="path412"
             style="fill:url(#pattern408);fill-opacity:1;fill-rule:nonzero;stroke:none"
             d="m 0,0 c -2.021,0 -4.042,0.761 -5.6,2.287 -3.155,3.093 -3.205,8.158 -0.112,11.314 l 40.866,41.688 c 3.093,3.153 8.158,3.206 11.314,0.112 3.155,-3.092 3.205,-8.158 0.112,-11.313 L 5.714,2.399 C 4.147,0.802 2.074,0 0,0" /></g><g
           transform="translate(1139.083,575.0083)"
           id="g414"><path
             id="path420"
             style="fill:url(#pattern416);fill-opacity:1;fill-rule:nonzero;stroke:none"
             d="M 0,0 C -2.021,0 -4.042,0.761 -5.6,2.287 -8.755,5.38 -8.805,10.445 -5.712,13.6 l 40.866,41.688 c 3.093,3.154 8.158,3.206 11.314,0.112 3.155,-3.092 3.205,-8.158 0.112,-11.313 L 5.714,2.4 C 4.147,0.802 2.074,0 0,0" /></g><g
           transform="translate(839.9302,863.8389)"
           id="g422"><path
             id="path424"
             style="fill:#fdcb01;fill-opacity:1;fill-rule:nonzero;stroke:none"
             d="M 0,0 C -2.021,0 -4.042,0.761 -5.6,2.287 -8.755,5.38 -8.805,10.445 -5.712,13.6 l 90.7,92.526 c 3.093,3.156 8.158,3.206 11.313,0.113 3.155,-3.093 3.205,-8.157 0.113,-11.313 L 5.713,2.4 C 4.147,0.802 2.074,0 0,0" /></g><g
           transform="translate(1076.957,586.4985)"
           id="g426"><path
             id="path428"
             style="fill:#fdcb01;fill-opacity:1;fill-rule:nonzero;stroke:none"
             d="M 0,0 C -2.021,0 -4.042,0.761 -5.6,2.287 -8.755,5.38 -8.805,10.445 -5.712,13.6 l 223.49,227.988 c 3.093,3.154 8.158,3.205 11.314,0.113 3.155,-3.093 3.205,-8.158 0.112,-11.313 L 5.714,2.4 C 4.147,0.802 2.074,0 0,0" /></g><g
           transform="translate(1447.5352,601.9092)"
           id="g430"><path
             id="path432"
             style="fill:#f5f5f5;fill-opacity:1;fill-rule:nonzero;stroke:none"
             d="M 0,0 -184.663,-186.125" /></g><g
           transform="translate(1262.8721,408.7842)"
           id="g434"><path
             id="path436"
             style="fill:#00ebea;fill-opacity:1;fill-rule:nonzero;stroke:none"
             d="m 0,0 c -1.782,0 -3.565,0.677 -4.931,2.031 -2.744,2.723 -2.761,7.155 -0.038,9.9 l 184.662,186.124 c 2.724,2.745 7.156,2.763 9.901,0.039 2.744,-2.723 2.761,-7.155 0.038,-9.899 L 4.969,2.069 C 3.601,0.69 1.801,0 0,0" /></g><g
           transform="translate(1118.6494,310.3213)"
           id="g438"><path
             id="path444"
             style="fill:url(#pattern440);fill-opacity:1;fill-rule:nonzero;stroke:none"
             d="m 0,0 c -2.021,0 -4.042,0.761 -5.6,2.287 -3.155,3.093 -3.205,8.158 -0.112,11.314 l 40.866,41.688 c 3.093,3.154 8.158,3.205 11.314,0.112 3.155,-3.092 3.205,-8.158 0.112,-11.313 L 5.714,2.399 C 4.147,0.802 2.074,0 0,0" /></g><g
           transform="translate(537.4185,331.165)"
           id="g446"><path
             id="path452"
             style="fill:url(#pattern448);fill-opacity:1;fill-rule:nonzero;stroke:none"
             d="m 0,0 c -2.021,0 -4.042,0.761 -5.6,2.287 -3.155,3.093 -3.205,8.158 -0.112,11.314 l 40.866,41.688 c 3.093,3.154 8.158,3.205 11.313,0.112 3.155,-3.092 3.205,-8.158 0.113,-11.313 L 5.713,2.399 C 4.147,0.802 2.074,0 0,0" /></g><g
           transform="translate(1615.2471,745.9424)"
           id="g454"><path
             id="path460"
             style="fill:url(#pattern456);fill-opacity:1;fill-rule:nonzero;stroke:none"
             d="M 0,0 C -2.021,0 -4.042,0.761 -5.6,2.287 -8.754,5.38 -8.805,10.445 -5.712,13.6 l 40.865,41.689 c 3.093,3.154 8.158,3.205 11.314,0.112 3.154,-3.092 3.205,-8.157 0.112,-11.313 L 5.714,2.4 C 4.147,0.802 2.074,0 0,0" /></g><g
           transform="translate(764.9111,1000.6338)"
           id="g462"><path
             id="path468"
             style="fill:url(#pattern464);fill-opacity:1;fill-rule:nonzero;stroke:none"
             d="M 0,0 C -2.021,0 -4.042,0.761 -5.6,2.287 -8.755,5.38 -8.805,10.445 -5.712,13.6 l 40.865,41.689 c 3.093,3.154 8.158,3.205 11.313,0.112 3.155,-3.092 3.205,-8.157 0.113,-11.313 L 5.713,2.4 C 4.147,0.802 2.074,0 0,0" /></g><g
           transform="translate(117.7808,61.915)"
           id="g470"><path
             id="path476"
             style="fill:url(#pattern472);fill-opacity:1;fill-rule:nonzero;stroke:none"
             d="m 0,0 c -2.021,0 -4.042,0.761 -5.6,2.287 -3.155,3.093 -3.205,8.158 -0.112,11.314 l 40.865,41.688 c 3.094,3.154 8.159,3.205 11.313,0.112 3.156,-3.092 3.206,-8.158 0.113,-11.313 L 5.713,2.399 C 4.147,0.802 2.074,0 0,0" /></g><g
           transform="translate(1110.2607,55.4355)"
           id="g478"><path
             id="path484"
             style="fill:url(#pattern480);fill-opacity:1;fill-rule:nonzero;stroke:none"
             d="m 0,0 c -2.021,0 -4.042,0.761 -5.6,2.287 -3.154,3.093 -3.205,8.158 -0.112,11.314 l 40.865,41.688 c 3.093,3.153 8.158,3.205 11.314,0.112 3.154,-3.092 3.205,-8.158 0.112,-11.313 L 5.714,2.399 C 4.147,0.802 2.074,0 0,0" /></g><g
           transform="translate(970.832,630.2949)"
           id="g486"><path
             id="path488"
             style="fill:#fdcb01;fill-opacity:1;fill-rule:nonzero;stroke:none"
             d="M 0,0 C -2.021,0 -4.042,0.761 -5.6,2.287 -8.755,5.38 -8.805,10.445 -5.712,13.6 l 171.525,174.978 c 3.093,3.154 8.158,3.206 11.314,0.113 3.155,-3.093 3.205,-8.158 0.112,-11.313 L 5.714,2.4 C 4.147,0.802 2.074,0 0,0" /></g><g
           transform="translate(842.0518,661.1846)"
           id="g490"><path
             id="path492"
             style="fill:#f5f5f5;fill-opacity:1;fill-rule:nonzero;stroke:none"
             d="M 0,0 -72.549,-74.009" /></g><g
           transform="translate(769.5024,580.1758)"
           id="g494"><path
             id="path496"
             style="fill:#00ebea;fill-opacity:1;fill-rule:nonzero;stroke:none"
             d="M 0,0 C -1.768,0 -3.537,0.666 -4.9,2.001 -7.661,4.708 -7.705,9.14 -4.999,11.9 L 67.55,85.909 c 2.706,2.76 7.138,2.805 9.9,0.099 2.76,-2.707 2.804,-7.139 0.098,-9.9 L 5,2.1 C 3.628,0.702 1.815,0 0,0" /></g><g
           transform="translate(1584.8037,49.6797)"
           id="g498"><path
             id="path500"
             style="fill:#fdcb01;fill-opacity:1;fill-rule:nonzero;stroke:none"
             d="m 0,0 c -2.021,0 -4.042,0.761 -5.6,2.287 -3.154,3.093 -3.205,8.158 -0.112,11.314 l 90.7,92.526 c 3.093,3.153 8.158,3.206 11.314,0.112 3.155,-3.093 3.205,-8.158 0.112,-11.313 L 5.714,2.399 C 4.147,0.802 2.074,0 0,0" /></g><g
           transform="translate(1622.3896,964.002)"
           id="g502"><path
             id="path504"
             style="fill:#fdcb01;fill-opacity:1;fill-rule:nonzero;stroke:none"
             d="M 0,0 C -2.021,0 -4.043,0.761 -5.601,2.287 -8.756,5.38 -8.806,10.445 -5.713,13.6 l 90.7,92.526 c 3.093,3.155 8.158,3.206 11.314,0.113 3.154,-3.093 3.205,-8.157 0.112,-11.313 L 5.713,2.4 C 4.146,0.802 2.073,0 0,0" /></g><g
           transform="translate(136.832,380.8535)"
           id="g506"><path
             id="path508"
             style="fill:#f5f5f5;fill-opacity:1;fill-rule:nonzero;stroke:none"
             d="M 0,0 -62.829,-64.093" /></g><g
           transform="translate(74.0024,309.7607)"
           id="g510"><path
             id="path512"
             style="fill:#00ebea;fill-opacity:1;fill-rule:nonzero;stroke:none"
             d="M 0,0 C -1.768,0 -3.537,0.666 -4.9,2.001 -7.661,4.708 -7.705,9.14 -4.998,11.9 l 62.829,64.093 c 2.706,2.762 7.137,2.805 9.899,0.099 2.761,-2.707 2.805,-7.139 0.098,-9.9 L 4.999,2.1 C 3.628,0.701 1.815,0 0,0" /></g><g
           transform="translate(1597.4131,374.1582)"
           id="g514"><path
             id="path516"
             style="fill:#f5f5f5;fill-opacity:1;fill-rule:nonzero;stroke:none"
             d="M 0,0 -62.829,-64.092" /></g><g
           transform="translate(1534.584,303.0664)"
           id="g518"><path
             id="path520"
             style="fill:#00ebea;fill-opacity:1;fill-rule:nonzero;stroke:none"
             d="M 0,0 C -1.769,0 -3.538,0.666 -4.9,2.001 -7.661,4.708 -7.705,9.14 -4.999,11.9 L 57.83,75.992 c 2.708,2.762 7.14,2.804 9.899,0.099 2.761,-2.707 2.805,-7.139 0.099,-9.9 L 4.999,2.1 C 3.628,0.701 1.814,0 0,0" /></g><g
           transform="translate(1085.3379,1029.4668)"
           id="g522"><path
             id="path524"
             style="fill:#f5f5f5;fill-opacity:1;fill-rule:nonzero;stroke:none"
             d="M 0,0 -62.829,-64.092" /></g><g
           transform="translate(1022.5088,958.375)"
           id="g526"><path
             id="path528"
             style="fill:#00ebea;fill-opacity:1;fill-rule:nonzero;stroke:none"
             d="M 0,0 C -1.769,0 -3.538,0.666 -4.9,2.001 -7.661,4.708 -7.705,9.14 -4.999,11.9 L 57.83,75.992 c 2.707,2.761 7.14,2.805 9.899,0.098 2.761,-2.706 2.805,-7.138 0.099,-9.899 L 4.999,2.1 C 3.628,0.702 1.814,0 0,0" /></g><g
           transform="translate(795.4146,441.4834)"
           id="g530"><path
             id="path532"
             style="fill:#f5f5f5;fill-opacity:1;fill-rule:nonzero;stroke:none"
             d="M 0,0 -62.829,-64.093" /></g><g
           transform="translate(732.585,370.3906)"
           id="g534"><path
             id="path536"
             style="fill:#00ebea;fill-opacity:1;fill-rule:nonzero;stroke:none"
             d="M 0,0 C -1.768,0 -3.537,0.666 -4.9,2.001 -7.661,4.708 -7.705,9.14 -4.998,11.9 l 62.829,64.093 c 2.706,2.762 7.137,2.804 9.899,0.099 2.761,-2.707 2.805,-7.139 0.098,-9.9 L 4.999,2.1 C 3.628,0.701 1.815,0 0,0" /></g><g
           transform="translate(1652.959,640.938)"
           id="g538"><path
             id="path540"
             style="fill:#fdcb01;fill-opacity:1;fill-rule:nonzero;stroke:none"
             d="M 0,0 C -2.021,0 -4.042,0.761 -5.6,2.287 -8.754,5.38 -8.805,10.445 -5.712,13.6 l 71.66,73.103 c 3.093,3.155 8.157,3.206 11.314,0.113 3.154,-3.093 3.205,-8.158 0.112,-11.313 L 5.714,2.4 C 4.147,0.802 2.074,0 0,0" /></g><g
           transform="translate(1799.6182,41.0703)"
           id="g542"><path
             id="path548"
             style="fill:url(#pattern544);fill-opacity:1;fill-rule:nonzero;stroke:none"
             d="m 0,0 c -2.021,0 -4.042,0.761 -5.6,2.287 -3.154,3.093 -3.205,8.158 -0.112,11.314 l 40.865,41.688 c 3.093,3.153 8.159,3.205 11.314,0.112 3.154,-3.092 3.205,-8.158 0.112,-11.313 L 5.714,2.399 C 4.147,0.802 2.074,0 0,0" /></g></g></g></g></svg>